<?xml version="1.0" encoding="UTF-8"?>
<svg xmlns="http://www.w3.org/2000/svg" xmlns:xlink="http://www.w3.org/1999/xlink" width="20px" height="20px" viewBox="0 0 20 20" version="1.1">
<g id="surface1">
<path style=" stroke:none;fill-rule:nonzero;fill:rgb(0%,0%,0%);fill-opacity:1;" d="M 19.089844 7.273438 L 17.714844 7.273438 C 17.621094 7 17.507812 6.734375 17.382812 6.472656 L 18.355469 5.5 C 18.710938 5.144531 18.710938 4.570312 18.355469 4.214844 L 15.785156 1.644531 C 15.429688 1.289062 14.855469 1.289062 14.5 1.644531 L 13.527344 2.617188 C 13.265625 2.492188 13 2.378906 12.726562 2.285156 L 12.726562 0.910156 C 12.726562 0.40625 12.320312 0 11.816406 0 L 8.183594 0 C 7.679688 0 7.273438 0.40625 7.273438 0.910156 L 7.273438 2.285156 C 7 2.378906 6.734375 2.492188 6.472656 2.617188 L 5.5 1.644531 C 5.144531 1.289062 4.570312 1.289062 4.214844 1.644531 L 1.644531 4.214844 C 1.472656 4.386719 1.378906 4.617188 1.378906 4.855469 C 1.378906 5.097656 1.472656 5.328125 1.644531 5.5 L 2.617188 6.472656 C 2.492188 6.734375 2.378906 7 2.285156 7.273438 L 0.910156 7.273438 C 0.40625 7.273438 0 7.679688 0 8.183594 L 0 11.816406 C 0 12.320312 0.40625 12.726562 0.910156 12.726562 L 2.285156 12.726562 C 2.378906 13 2.492188 13.265625 2.617188 13.527344 L 1.644531 14.5 C 1.472656 14.671875 1.378906 14.902344 1.378906 15.140625 C 1.378906 15.382812 1.472656 15.613281 1.644531 15.785156 L 4.214844 18.355469 C 4.570312 18.710938 5.144531 18.710938 5.5 18.355469 L 6.472656 17.382812 C 6.734375 17.507812 7 17.621094 7.273438 17.714844 L 7.273438 19.089844 C 7.273438 19.59375 7.679688 20 8.183594 20 L 11.816406 20 C 12.320312 20 12.726562 19.59375 12.726562 19.089844 L 12.726562 17.714844 C 13 17.621094 13.265625 17.507812 13.527344 17.382812 L 14.5 18.355469 C 14.855469 18.710938 15.429688 18.710938 15.785156 18.355469 L 18.355469 15.785156 C 18.710938 15.429688 18.710938 14.855469 18.355469 14.5 L 17.382812 13.527344 C 17.507812 13.265625 17.621094 13 17.714844 12.726562 L 19.089844 12.726562 C 19.59375 12.726562 20 12.320312 20 11.816406 L 20 8.183594 C 20 7.679688 19.59375 7.273438 19.089844 7.273438 Z M 18.183594 10.910156 L 17.042969 10.910156 C 16.628906 10.910156 16.265625 11.191406 16.164062 11.589844 C 16.015625 12.164062 15.785156 12.71875 15.484375 13.230469 C 15.273438 13.589844 15.328125 14.042969 15.621094 14.335938 L 16.429688 15.144531 L 15.144531 16.429688 L 14.335938 15.621094 C 14.042969 15.328125 13.589844 15.273438 13.230469 15.484375 C 12.71875 15.785156 12.164062 16.015625 11.589844 16.164062 C 11.191406 16.265625 10.910156 16.628906 10.910156 17.042969 L 10.910156 18.183594 L 9.089844 18.183594 L 9.089844 17.042969 C 9.089844 16.628906 8.808594 16.265625 8.410156 16.164062 C 7.835938 16.015625 7.28125 15.785156 6.769531 15.484375 C 6.410156 15.273438 5.957031 15.328125 5.664062 15.621094 L 4.859375 16.429688 L 3.570312 15.144531 L 4.378906 14.335938 C 4.671875 14.042969 4.726562 13.589844 4.515625 13.230469 C 4.214844 12.71875 3.984375 12.164062 3.835938 11.589844 C 3.734375 11.191406 3.371094 10.910156 2.957031 10.910156 L 1.816406 10.910156 L 1.816406 9.089844 L 2.957031 9.089844 C 3.371094 9.089844 3.734375 8.808594 3.835938 8.410156 C 3.984375 7.835938 4.214844 7.28125 4.515625 6.769531 C 4.726562 6.410156 4.671875 5.957031 4.378906 5.664062 L 3.570312 4.855469 L 4.859375 3.570312 L 5.664062 4.378906 C 5.957031 4.671875 6.410156 4.726562 6.769531 4.515625 C 7.28125 4.214844 7.835938 3.984375 8.410156 3.835938 C 8.808594 3.734375 9.089844 3.371094 9.089844 2.957031 L 9.089844 1.816406 L 10.910156 1.816406 L 10.910156 2.957031 C 10.910156 3.371094 11.191406 3.734375 11.589844 3.835938 C 12.164062 3.984375 12.71875 4.214844 13.230469 4.515625 C 13.589844 4.726562 14.042969 4.671875 14.335938 4.378906 L 15.144531 3.570312 L 16.429688 4.855469 L 15.621094 5.664062 C 15.328125 5.957031 15.273438 6.410156 15.484375 6.769531 C 15.785156 7.28125 16.015625 7.835938 16.164062 8.410156 C 16.265625 8.808594 16.628906 9.089844 17.042969 9.089844 L 18.183594 9.089844 Z M 18.183594 10.910156 "/>
<path style=" stroke:none;fill-rule:nonzero;fill:rgb(0%,0%,0%);fill-opacity:1;" d="M 12.359375 9.230469 L 9.453125 7.410156 C 9.171875 7.234375 8.816406 7.226562 8.527344 7.386719 C 8.238281 7.546875 8.058594 7.851562 8.058594 8.183594 L 8.058594 11.816406 C 8.058594 12.148438 8.238281 12.453125 8.527344 12.613281 C 8.667969 12.6875 8.816406 12.726562 8.96875 12.726562 C 9.136719 12.726562 9.304688 12.679688 9.453125 12.589844 L 12.359375 10.769531 C 12.625 10.605469 12.789062 10.3125 12.789062 10 C 12.789062 9.6875 12.625 9.394531 12.359375 9.230469 Z M 12.359375 9.230469 "/>
</g>
</svg>
