<?xml version="1.0" encoding="UTF-8"?>
<svg xmlns="http://www.w3.org/2000/svg" xmlns:xlink="http://www.w3.org/1999/xlink" width="8px" height="8px" viewBox="0 0 8 8" version="1.1">
<g id="surface1">
<path style=" stroke:none;fill-rule:nonzero;fill:rgb(0%,0%,0%);fill-opacity:1;" d="M 7.636719 2.910156 L 7.085938 2.910156 C 7.046875 2.800781 7.003906 2.695312 6.953125 2.589844 L 7.34375 2.199219 C 7.484375 2.058594 7.484375 1.828125 7.34375 1.6875 L 6.3125 0.65625 C 6.171875 0.515625 5.941406 0.515625 5.800781 0.65625 L 5.410156 1.046875 C 5.304688 0.996094 5.199219 0.953125 5.089844 0.914062 L 5.089844 0.363281 C 5.089844 0.164062 4.929688 0 4.726562 0 L 3.273438 0 C 3.070312 0 2.910156 0.164062 2.910156 0.363281 L 2.910156 0.914062 C 2.800781 0.953125 2.695312 0.996094 2.589844 1.046875 L 2.199219 0.65625 C 2.058594 0.515625 1.828125 0.515625 1.6875 0.65625 L 0.65625 1.6875 C 0.589844 1.753906 0.550781 1.847656 0.550781 1.941406 C 0.550781 2.039062 0.589844 2.132812 0.65625 2.199219 L 1.046875 2.589844 C 0.996094 2.695312 0.953125 2.800781 0.914062 2.910156 L 0.363281 2.910156 C 0.164062 2.910156 0 3.070312 0 3.273438 L 0 4.726562 C 0 4.929688 0.164062 5.089844 0.363281 5.089844 L 0.914062 5.089844 C 0.953125 5.199219 0.996094 5.304688 1.046875 5.410156 L 0.65625 5.800781 C 0.589844 5.867188 0.550781 5.960938 0.550781 6.058594 C 0.550781 6.152344 0.589844 6.246094 0.65625 6.3125 L 1.6875 7.34375 C 1.828125 7.484375 2.058594 7.484375 2.199219 7.34375 L 2.589844 6.953125 C 2.695312 7.003906 2.800781 7.046875 2.910156 7.085938 L 2.910156 7.636719 C 2.910156 7.835938 3.070312 8 3.273438 8 L 4.726562 8 C 4.929688 8 5.089844 7.835938 5.089844 7.636719 L 5.089844 7.085938 C 5.199219 7.046875 5.304688 7.003906 5.410156 6.953125 L 5.800781 7.34375 C 5.941406 7.484375 6.171875 7.484375 6.3125 7.34375 L 7.34375 6.3125 C 7.484375 6.171875 7.484375 5.941406 7.34375 5.800781 L 6.953125 5.410156 C 7.003906 5.304688 7.046875 5.199219 7.085938 5.089844 L 7.636719 5.089844 C 7.835938 5.089844 8 4.929688 8 4.726562 L 8 3.273438 C 8 3.070312 7.835938 2.910156 7.636719 2.910156 Z M 7.273438 4.363281 L 6.816406 4.363281 C 6.652344 4.363281 6.507812 4.476562 6.464844 4.636719 C 6.40625 4.867188 6.316406 5.085938 6.191406 5.292969 C 6.109375 5.4375 6.132812 5.617188 6.25 5.734375 L 6.570312 6.058594 L 6.058594 6.570312 L 5.734375 6.25 C 5.617188 6.132812 5.4375 6.109375 5.292969 6.191406 C 5.085938 6.316406 4.867188 6.40625 4.636719 6.464844 C 4.476562 6.507812 4.363281 6.652344 4.363281 6.816406 L 4.363281 7.273438 L 3.636719 7.273438 L 3.636719 6.816406 C 3.636719 6.652344 3.523438 6.507812 3.363281 6.464844 C 3.132812 6.40625 2.914062 6.316406 2.707031 6.191406 C 2.566406 6.109375 2.382812 6.132812 2.265625 6.25 L 1.941406 6.570312 L 1.429688 6.058594 L 1.75 5.734375 C 1.867188 5.617188 1.890625 5.4375 1.808594 5.292969 C 1.683594 5.085938 1.59375 4.867188 1.535156 4.636719 C 1.492188 4.476562 1.347656 4.363281 1.183594 4.363281 L 0.726562 4.363281 L 0.726562 3.636719 L 1.183594 3.636719 C 1.347656 3.636719 1.492188 3.523438 1.535156 3.363281 C 1.59375 3.132812 1.683594 2.914062 1.808594 2.707031 C 1.890625 2.5625 1.867188 2.382812 1.75 2.265625 L 1.429688 1.941406 L 1.941406 1.429688 L 2.265625 1.75 C 2.382812 1.867188 2.566406 1.890625 2.707031 1.808594 C 2.914062 1.683594 3.132812 1.59375 3.363281 1.535156 C 3.523438 1.492188 3.636719 1.347656 3.636719 1.183594 L 3.636719 0.726562 L 4.363281 0.726562 L 4.363281 1.183594 C 4.363281 1.347656 4.476562 1.492188 4.636719 1.535156 C 4.867188 1.59375 5.085938 1.683594 5.292969 1.808594 C 5.433594 1.890625 5.617188 1.867188 5.734375 1.75 L 6.058594 1.429688 L 6.570312 1.941406 L 6.25 2.265625 C 6.132812 2.382812 6.109375 2.566406 6.191406 2.707031 C 6.316406 2.914062 6.40625 3.132812 6.464844 3.363281 C 6.507812 3.523438 6.652344 3.636719 6.816406 3.636719 L 7.273438 3.636719 Z M 7.273438 4.363281 "/>
<path style=" stroke:none;fill-rule:nonzero;fill:rgb(0%,0%,0%);fill-opacity:1;" d="M 4.945312 3.691406 L 3.78125 2.964844 C 3.667969 2.894531 3.527344 2.890625 3.410156 2.953125 C 3.296875 3.019531 3.222656 3.140625 3.222656 3.273438 L 3.222656 4.726562 C 3.222656 4.859375 3.296875 4.980469 3.410156 5.046875 C 3.464844 5.074219 3.527344 5.089844 3.585938 5.089844 C 3.65625 5.089844 3.722656 5.074219 3.78125 5.035156 L 4.945312 4.308594 C 5.050781 4.242188 5.113281 4.125 5.113281 4 C 5.113281 3.875 5.050781 3.757812 4.945312 3.691406 Z M 4.945312 3.691406 "/>
</g>
</svg>
